<svg xmlns="http://www.w3.org/2000/svg" xmlns:xlink="http://www.w3.org/1999/xlink" width="800" zoomAndPan="magnify" viewBox="0 0 600 599.999999" height="800" preserveAspectRatio="xMidYMid meet" version="1.0"><defs><g/><clipPath id="7a9bc7e4dd"><path d="M 180 99.476562 L 420 99.476562 L 420 339.476562 L 180 339.476562 Z M 180 99.476562 " clip-rule="nonzero"/></clipPath></defs><g fill="#ffffff" fill-opacity="1"><g transform="translate(140.342507, 414.724661)"><g><path d="M 3.03125 -41.578125 L 17.890625 -41.578125 C 21.890625 -41.578125 25.148438 -40.507812 27.671875 -38.375 C 30.191406 -36.25 31.453125 -33.203125 31.453125 -29.234375 C 31.453125 -26.179688 30.6875 -23.617188 29.15625 -21.546875 C 27.625 -19.484375 25.550781 -18.03125 22.9375 -17.1875 L 37.25 0 L 25.203125 0 L 12.5 -16.4375 L 12.5 0 L 3.03125 0 Z M 12.5 -23.140625 L 13.609375 -23.140625 C 14.484375 -23.140625 15.222656 -23.15625 15.828125 -23.1875 C 16.429688 -23.21875 17.117188 -23.332031 17.890625 -23.53125 C 18.660156 -23.738281 19.28125 -24.023438 19.75 -24.390625 C 20.226562 -24.765625 20.632812 -25.300781 20.96875 -26 C 21.300781 -26.707031 21.46875 -27.566406 21.46875 -28.578125 C 21.46875 -29.585938 21.300781 -30.441406 20.96875 -31.140625 C 20.632812 -31.847656 20.226562 -32.382812 19.75 -32.75 C 19.28125 -33.125 18.660156 -33.410156 17.890625 -33.609375 C 17.117188 -33.816406 16.429688 -33.9375 15.828125 -33.96875 C 15.222656 -34.007812 14.484375 -34.03125 13.609375 -34.03125 L 12.5 -34.03125 Z M 12.5 -23.140625 "/></g></g></g><g fill="#ffffff" fill-opacity="1"><g transform="translate(176.42895, 414.724661)"><g><path d="M 22.625 -25.859375 L 32.921875 -25.859375 L 12.59375 13.109375 L 2.3125 13.109375 L 11.234375 -4.03125 L -1.015625 -25.859375 L 9.28125 -25.859375 L 16.484375 -12.59375 Z M 22.625 -25.859375 "/></g></g></g><g fill="#ffffff" fill-opacity="1"><g transform="translate(208.332183, 414.724661)"><g><path d="M 4.78125 -3.203125 C 2.363281 -5.835938 1.15625 -9.070312 1.15625 -12.90625 C 1.15625 -16.738281 2.363281 -19.976562 4.78125 -22.625 C 7.207031 -25.28125 10.285156 -26.609375 14.015625 -26.609375 C 17.441406 -26.609375 20.265625 -25.535156 22.484375 -23.390625 L 22.484375 -25.859375 L 31.40625 -25.859375 L 31.40625 0 L 22.578125 0 L 22.578125 -2.921875 L 22.484375 -2.921875 C 20.265625 -0.472656 17.441406 0.75 14.015625 0.75 C 10.285156 0.75 7.207031 -0.566406 4.78125 -3.203125 Z M 12.375 -17.28125 C 11.21875 -16.144531 10.640625 -14.6875 10.640625 -12.90625 C 10.640625 -11.125 11.191406 -9.671875 12.296875 -8.546875 C 13.410156 -7.421875 14.875 -6.859375 16.6875 -6.859375 C 18.4375 -6.859375 19.875 -7.425781 21 -8.5625 C 22.125 -9.707031 22.6875 -11.15625 22.6875 -12.90625 C 22.6875 -14.6875 22.101562 -16.144531 20.9375 -17.28125 C 19.78125 -18.425781 18.363281 -19 16.6875 -19 C 14.96875 -19 13.53125 -18.425781 12.375 -17.28125 Z M 12.375 -17.28125 "/></g></g></g><g fill="#ffffff" fill-opacity="1"><g transform="translate(242.755424, 414.724661)"><g><path d="M 3.03125 0 L 3.03125 -25.859375 L 11.953125 -25.859375 L 11.953125 -23.140625 L 12.046875 -23.140625 C 14.367188 -25.453125 16.835938 -26.609375 19.453125 -26.609375 C 20.734375 -26.609375 22.003906 -26.441406 23.265625 -26.109375 C 24.523438 -25.773438 25.734375 -25.253906 26.890625 -24.546875 C 28.046875 -23.835938 28.984375 -22.835938 29.703125 -21.546875 C 30.429688 -20.253906 30.796875 -18.75 30.796875 -17.03125 L 30.796875 0 L 21.875 0 L 21.875 -14.625 C 21.875 -15.96875 21.445312 -17.140625 20.59375 -18.140625 C 19.738281 -19.148438 18.617188 -19.65625 17.234375 -19.65625 C 15.890625 -19.65625 14.671875 -19.132812 13.578125 -18.09375 C 12.492188 -17.050781 11.953125 -15.894531 11.953125 -14.625 L 11.953125 0 Z M 3.03125 0 "/></g></g></g><g fill="#ffffff" fill-opacity="1"><g transform="translate(276.069869, 414.724661)"><g/></g></g><g fill="#ffffff" fill-opacity="1"><g transform="translate(289.829091, 414.724661)"><g><path d="M 37.40625 0 L 35.4375 -24.65625 L 35.1875 -24.65625 L 26.671875 -0.25 L 21.015625 -0.25 L 12.5 -24.65625 L 12.25 -24.65625 L 10.28125 0 L 0.8125 0 L 4.53125 -41.578125 L 14.625 -41.578125 L 23.84375 -17.59375 L 33.0625 -41.578125 L 43.140625 -41.578125 L 46.875 0 Z M 37.40625 0 "/></g></g></g><g fill="#ffffff" fill-opacity="1"><g transform="translate(337.507556, 414.724661)"><g><path d="M 5.46875 -3.078125 C 2.59375 -5.628906 1.15625 -8.90625 1.15625 -12.90625 C 1.15625 -16.90625 2.648438 -20.1875 5.640625 -22.75 C 8.628906 -25.320312 12.328125 -26.609375 16.734375 -26.609375 C 21.066406 -26.609375 24.71875 -25.316406 27.6875 -22.734375 C 30.664062 -20.148438 32.15625 -16.875 32.15625 -12.90625 C 32.15625 -8.9375 30.703125 -5.664062 27.796875 -3.09375 C 24.890625 -0.53125 21.203125 0.75 16.734375 0.75 C 12.097656 0.75 8.34375 -0.523438 5.46875 -3.078125 Z M 12.375 -17.28125 C 11.21875 -16.144531 10.640625 -14.6875 10.640625 -12.90625 C 10.640625 -11.125 11.191406 -9.671875 12.296875 -8.546875 C 13.410156 -7.421875 14.875 -6.859375 16.6875 -6.859375 C 18.4375 -6.859375 19.875 -7.425781 21 -8.5625 C 22.125 -9.707031 22.6875 -11.15625 22.6875 -12.90625 C 22.6875 -14.6875 22.101562 -16.144531 20.9375 -17.28125 C 19.78125 -18.425781 18.363281 -19 16.6875 -19 C 14.96875 -19 13.53125 -18.425781 12.375 -17.28125 Z M 12.375 -17.28125 "/></g></g></g><g fill="#ffffff" fill-opacity="1"><g transform="translate(370.822002, 414.724661)"><g><path d="M 5.46875 -3.078125 C 2.59375 -5.628906 1.15625 -8.90625 1.15625 -12.90625 C 1.15625 -16.90625 2.648438 -20.1875 5.640625 -22.75 C 8.628906 -25.320312 12.328125 -26.609375 16.734375 -26.609375 C 21.066406 -26.609375 24.71875 -25.316406 27.6875 -22.734375 C 30.664062 -20.148438 32.15625 -16.875 32.15625 -12.90625 C 32.15625 -8.9375 30.703125 -5.664062 27.796875 -3.09375 C 24.890625 -0.53125 21.203125 0.75 16.734375 0.75 C 12.097656 0.75 8.34375 -0.523438 5.46875 -3.078125 Z M 12.375 -17.28125 C 11.21875 -16.144531 10.640625 -14.6875 10.640625 -12.90625 C 10.640625 -11.125 11.191406 -9.671875 12.296875 -8.546875 C 13.410156 -7.421875 14.875 -6.859375 16.6875 -6.859375 C 18.4375 -6.859375 19.875 -7.425781 21 -8.5625 C 22.125 -9.707031 22.6875 -11.15625 22.6875 -12.90625 C 22.6875 -14.6875 22.101562 -16.144531 20.9375 -17.28125 C 19.78125 -18.425781 18.363281 -19 16.6875 -19 C 14.96875 -19 13.53125 -18.425781 12.375 -17.28125 Z M 12.375 -17.28125 "/></g></g></g><g fill="#ffffff" fill-opacity="1"><g transform="translate(404.136447, 414.724661)"><g><path d="M 3.03125 0 L 3.03125 -25.859375 L 11.953125 -25.859375 L 11.953125 -22.125 L 12.046875 -22.125 C 12.109375 -22.257812 12.210938 -22.425781 12.359375 -22.625 C 12.515625 -22.832031 12.84375 -23.1875 13.34375 -23.6875 C 13.851562 -24.195312 14.394531 -24.648438 14.96875 -25.046875 C 15.539062 -25.453125 16.28125 -25.8125 17.1875 -26.125 C 18.09375 -26.445312 19.015625 -26.609375 19.953125 -26.609375 C 20.929688 -26.609375 21.890625 -26.472656 22.828125 -26.203125 C 23.773438 -25.941406 24.46875 -25.675781 24.90625 -25.40625 L 25.609375 -25 L 21.875 -17.4375 C 20.769531 -18.382812 19.222656 -18.859375 17.234375 -18.859375 C 16.160156 -18.859375 15.238281 -18.617188 14.46875 -18.140625 C 13.695312 -17.671875 13.148438 -17.097656 12.828125 -16.421875 C 12.503906 -15.753906 12.273438 -15.1875 12.140625 -14.71875 C 12.015625 -14.25 11.953125 -13.878906 11.953125 -13.609375 L 11.953125 0 Z M 3.03125 0 "/></g></g></g><g fill="#ffffff" fill-opacity="1"><g transform="translate(429.235683, 414.724661)"><g><path d="M 29.1875 -11.6875 L 10.4375 -11.6875 C 10.4375 -9.875 11.023438 -8.53125 12.203125 -7.65625 C 13.378906 -6.78125 14.65625 -6.34375 16.03125 -6.34375 C 17.476562 -6.34375 18.617188 -6.535156 19.453125 -6.921875 C 20.296875 -7.316406 21.253906 -8.082031 22.328125 -9.21875 L 28.78125 -6 C 26.09375 -1.5 21.625 0.75 15.375 0.75 C 11.476562 0.75 8.132812 -0.582031 5.34375 -3.25 C 2.550781 -5.925781 1.15625 -9.144531 1.15625 -12.90625 C 1.15625 -16.664062 2.550781 -19.890625 5.34375 -22.578125 C 8.132812 -25.265625 11.476562 -26.609375 15.375 -26.609375 C 19.476562 -26.609375 22.8125 -25.421875 25.375 -23.046875 C 27.945312 -20.679688 29.234375 -17.300781 29.234375 -12.90625 C 29.234375 -12.300781 29.21875 -11.894531 29.1875 -11.6875 Z M 10.6875 -16.640625 L 20.515625 -16.640625 C 20.316406 -17.984375 19.785156 -19.015625 18.921875 -19.734375 C 18.066406 -20.453125 16.96875 -20.8125 15.625 -20.8125 C 14.144531 -20.8125 12.96875 -20.425781 12.09375 -19.65625 C 11.21875 -18.882812 10.75 -17.878906 10.6875 -16.640625 Z M 10.6875 -16.640625 "/></g></g></g><g fill="#ffffff" fill-opacity="1"><g transform="translate(131.395087, 450.144673)"><g><path d="M 1.75 0 L 1.75 -14.71875 L 12.921875 -14.71875 L 12.921875 -13.09375 L 3.75 -13.09375 L 3.75 -8.359375 L 12.296875 -8.359375 L 12.296875 -6.75 L 3.75 -6.75 L 3.75 -1.625 L 13.34375 -1.625 L 13.34375 0 Z M 1.75 0 "/></g></g></g><g fill="#ffffff" fill-opacity="1"><g transform="translate(152.10132, 450.144673)"><g><path d="M 11.296875 0 L 3.421875 -12.53125 L 3.484375 -11.515625 L 3.53125 -9.78125 L 3.53125 0 L 1.75 0 L 1.75 -14.71875 L 4.078125 -14.71875 L 12.03125 -2.09375 C 11.945312 -3.457031 11.90625 -4.445312 11.90625 -5.0625 L 11.90625 -14.71875 L 13.703125 -14.71875 L 13.703125 0 Z M 11.296875 0 "/></g></g></g><g fill="#ffffff" fill-opacity="1"><g transform="translate(173.987588, 450.144673)"><g><path d="M 1.078125 -7.421875 C 1.078125 -9.816406 1.71875 -11.664062 3 -12.96875 C 4.28125 -14.28125 6.078125 -14.9375 8.390625 -14.9375 C 10.023438 -14.9375 11.347656 -14.660156 12.359375 -14.109375 C 13.378906 -13.554688 14.164062 -12.675781 14.71875 -11.46875 L 12.8125 -10.90625 C 12.394531 -11.738281 11.816406 -12.347656 11.078125 -12.734375 C 10.347656 -13.117188 9.4375 -13.3125 8.34375 -13.3125 C 6.644531 -13.3125 5.347656 -12.796875 4.453125 -11.765625 C 3.554688 -10.734375 3.109375 -9.285156 3.109375 -7.421875 C 3.109375 -5.566406 3.582031 -4.097656 4.53125 -3.015625 C 5.488281 -1.941406 6.804688 -1.40625 8.484375 -1.40625 C 9.453125 -1.40625 10.347656 -1.550781 11.171875 -1.84375 C 12.003906 -2.132812 12.679688 -2.535156 13.203125 -3.046875 L 13.203125 -5.6875 L 8.8125 -5.6875 L 8.8125 -7.359375 L 15.046875 -7.359375 L 15.046875 -2.28125 C 14.265625 -1.488281 13.304688 -0.875 12.171875 -0.4375 C 11.035156 -0.0078125 9.804688 0.203125 8.484375 0.203125 C 6.953125 0.203125 5.628906 -0.0976562 4.515625 -0.703125 C 3.398438 -1.316406 2.546875 -2.203125 1.953125 -3.359375 C 1.367188 -4.515625 1.078125 -5.867188 1.078125 -7.421875 Z M 1.078125 -7.421875 "/></g></g></g><g fill="#ffffff" fill-opacity="1"><g transform="translate(197.064327, 450.144673)"><g><path d="M 1.75 0 L 1.75 -14.71875 L 3.75 -14.71875 L 3.75 -1.625 L 11.1875 -1.625 L 11.1875 0 Z M 1.75 0 "/></g></g></g><g fill="#ffffff" fill-opacity="1"><g transform="translate(215.400067, 450.144673)"><g><path d="M 1.96875 0 L 1.96875 -14.71875 L 3.96875 -14.71875 L 3.96875 0 Z M 1.96875 0 "/></g></g></g><g fill="#ffffff" fill-opacity="1"><g transform="translate(227.78345, 450.144673)"><g><path d="M 13.28125 -4.0625 C 13.28125 -2.707031 12.75 -1.65625 11.6875 -0.90625 C 10.625 -0.164062 9.128906 0.203125 7.203125 0.203125 C 3.617188 0.203125 1.539062 -1.039062 0.96875 -3.53125 L 2.90625 -3.921875 C 3.125 -3.035156 3.59375 -2.382812 4.3125 -1.96875 C 5.039062 -1.550781 6.03125 -1.34375 7.28125 -1.34375 C 8.570312 -1.34375 9.566406 -1.5625 10.265625 -2 C 10.960938 -2.445312 11.3125 -3.097656 11.3125 -3.953125 C 11.3125 -4.429688 11.203125 -4.820312 10.984375 -5.125 C 10.765625 -5.425781 10.457031 -5.671875 10.0625 -5.859375 C 9.664062 -6.054688 9.191406 -6.222656 8.640625 -6.359375 C 8.085938 -6.492188 7.476562 -6.632812 6.8125 -6.78125 C 5.644531 -7.039062 4.757812 -7.300781 4.15625 -7.5625 C 3.5625 -7.820312 3.085938 -8.109375 2.734375 -8.421875 C 2.390625 -8.742188 2.125 -9.113281 1.9375 -9.53125 C 1.75 -9.957031 1.65625 -10.445312 1.65625 -11 C 1.65625 -12.257812 2.132812 -13.226562 3.09375 -13.90625 C 4.0625 -14.59375 5.445312 -14.9375 7.25 -14.9375 C 8.914062 -14.9375 10.191406 -14.679688 11.078125 -14.171875 C 11.960938 -13.660156 12.582031 -12.785156 12.9375 -11.546875 L 10.984375 -11.203125 C 10.765625 -11.984375 10.351562 -12.550781 9.75 -12.90625 C 9.144531 -13.257812 8.304688 -13.4375 7.234375 -13.4375 C 6.054688 -13.4375 5.15625 -13.238281 4.53125 -12.84375 C 3.914062 -12.457031 3.609375 -11.878906 3.609375 -11.109375 C 3.609375 -10.648438 3.726562 -10.269531 3.96875 -9.96875 C 4.207031 -9.675781 4.550781 -9.425781 5 -9.21875 C 5.457031 -9.019531 6.359375 -8.769531 7.703125 -8.46875 C 8.160156 -8.363281 8.613281 -8.253906 9.0625 -8.140625 C 9.507812 -8.035156 9.9375 -7.910156 10.34375 -7.765625 C 10.757812 -7.617188 11.144531 -7.441406 11.5 -7.234375 C 11.863281 -7.035156 12.175781 -6.789062 12.4375 -6.5 C 12.707031 -6.207031 12.914062 -5.863281 13.0625 -5.46875 C 13.207031 -5.070312 13.28125 -4.601562 13.28125 -4.0625 Z M 13.28125 -4.0625 "/></g></g></g><g fill="#ffffff" fill-opacity="1"><g transform="translate(248.489679, 450.144673)"><g><path d="M 11.703125 0 L 11.703125 -6.828125 L 3.75 -6.828125 L 3.75 0 L 1.75 0 L 1.75 -14.71875 L 3.75 -14.71875 L 3.75 -8.484375 L 11.703125 -8.484375 L 11.703125 -14.71875 L 13.703125 -14.71875 L 13.703125 0 Z M 11.703125 0 "/></g></g></g><g fill="#ffffff" fill-opacity="1"><g transform="translate(270.375943, 450.144673)"><g/></g></g><g fill="#ffffff" fill-opacity="1"><g transform="translate(282.759319, 450.144673)"><g><path d="M 13.140625 -10.28125 C 13.140625 -8.894531 12.679688 -7.789062 11.765625 -6.96875 C 10.859375 -6.144531 9.628906 -5.734375 8.078125 -5.734375 L 3.75 -5.734375 L 3.75 0 L 1.75 0 L 1.75 -14.71875 L 7.953125 -14.71875 C 9.597656 -14.71875 10.875 -14.328125 11.78125 -13.546875 C 12.6875 -12.773438 13.140625 -11.6875 13.140625 -10.28125 Z M 11.140625 -10.265625 C 11.140625 -12.171875 9.992188 -13.125 7.703125 -13.125 L 3.75 -13.125 L 3.75 -7.3125 L 7.796875 -7.3125 C 10.023438 -7.3125 11.140625 -8.296875 11.140625 -10.265625 Z M 11.140625 -10.265625 "/></g></g></g><g fill="#ffffff" fill-opacity="1"><g transform="translate(303.465549, 450.144673)"><g><path d="M 12.15625 0 L 8.328125 -6.109375 L 3.75 -6.109375 L 3.75 0 L 1.75 0 L 1.75 -14.71875 L 8.671875 -14.71875 C 10.335938 -14.71875 11.617188 -14.34375 12.515625 -13.59375 C 13.421875 -12.851562 13.875 -11.820312 13.875 -10.5 C 13.875 -9.414062 13.550781 -8.5 12.90625 -7.75 C 12.269531 -7 11.394531 -6.53125 10.28125 -6.34375 L 14.453125 0 Z M 11.859375 -10.484375 C 11.859375 -11.335938 11.566406 -11.988281 10.984375 -12.4375 C 10.410156 -12.894531 9.578125 -13.125 8.484375 -13.125 L 3.75 -13.125 L 3.75 -7.6875 L 8.5625 -7.6875 C 9.613281 -7.6875 10.425781 -7.929688 11 -8.421875 C 11.570312 -8.910156 11.859375 -9.597656 11.859375 -10.484375 Z M 11.859375 -10.484375 "/></g></g></g><g fill="#ffffff" fill-opacity="1"><g transform="translate(325.351812, 450.144673)"><g><path d="M 15.609375 -7.421875 C 15.609375 -5.890625 15.3125 -4.546875 14.71875 -3.390625 C 14.132812 -2.234375 13.289062 -1.34375 12.1875 -0.71875 C 11.09375 -0.101562 9.796875 0.203125 8.296875 0.203125 C 6.785156 0.203125 5.484375 -0.0976562 4.390625 -0.703125 C 3.296875 -1.316406 2.457031 -2.203125 1.875 -3.359375 C 1.300781 -4.523438 1.015625 -5.878906 1.015625 -7.421875 C 1.015625 -9.773438 1.65625 -11.613281 2.9375 -12.9375 C 4.226562 -14.269531 6.023438 -14.9375 8.328125 -14.9375 C 9.816406 -14.9375 11.113281 -14.640625 12.21875 -14.046875 C 13.320312 -13.453125 14.160156 -12.585938 14.734375 -11.453125 C 15.316406 -10.316406 15.609375 -8.972656 15.609375 -7.421875 Z M 13.578125 -7.421875 C 13.578125 -9.253906 13.117188 -10.691406 12.203125 -11.734375 C 11.285156 -12.785156 9.992188 -13.3125 8.328125 -13.3125 C 6.640625 -13.3125 5.335938 -12.796875 4.421875 -11.765625 C 3.503906 -10.734375 3.046875 -9.285156 3.046875 -7.421875 C 3.046875 -5.578125 3.507812 -4.113281 4.4375 -3.03125 C 5.363281 -1.945312 6.648438 -1.40625 8.296875 -1.40625 C 10.003906 -1.40625 11.3125 -1.925781 12.21875 -2.96875 C 13.125 -4.019531 13.578125 -5.503906 13.578125 -7.421875 Z M 13.578125 -7.421875 "/></g></g></g><g fill="#ffffff" fill-opacity="1"><g transform="translate(348.428548, 450.144673)"><g><path d="M 3.75 -13.09375 L 3.75 -7.609375 L 11.953125 -7.609375 L 11.953125 -5.96875 L 3.75 -5.96875 L 3.75 0 L 1.75 0 L 1.75 -14.71875 L 12.203125 -14.71875 L 12.203125 -13.09375 Z M 3.75 -13.09375 "/></g></g></g><g fill="#ffffff" fill-opacity="1"><g transform="translate(367.93388, 450.144673)"><g><path d="M 1.75 0 L 1.75 -14.71875 L 12.921875 -14.71875 L 12.921875 -13.09375 L 3.75 -13.09375 L 3.75 -8.359375 L 12.296875 -8.359375 L 12.296875 -6.75 L 3.75 -6.75 L 3.75 -1.625 L 13.34375 -1.625 L 13.34375 0 Z M 1.75 0 "/></g></g></g><g fill="#ffffff" fill-opacity="1"><g transform="translate(388.640109, 450.144673)"><g><path d="M 13.28125 -4.0625 C 13.28125 -2.707031 12.75 -1.65625 11.6875 -0.90625 C 10.625 -0.164062 9.128906 0.203125 7.203125 0.203125 C 3.617188 0.203125 1.539062 -1.039062 0.96875 -3.53125 L 2.90625 -3.921875 C 3.125 -3.035156 3.59375 -2.382812 4.3125 -1.96875 C 5.039062 -1.550781 6.03125 -1.34375 7.28125 -1.34375 C 8.570312 -1.34375 9.566406 -1.5625 10.265625 -2 C 10.960938 -2.445312 11.3125 -3.097656 11.3125 -3.953125 C 11.3125 -4.429688 11.203125 -4.820312 10.984375 -5.125 C 10.765625 -5.425781 10.457031 -5.671875 10.0625 -5.859375 C 9.664062 -6.054688 9.191406 -6.222656 8.640625 -6.359375 C 8.085938 -6.492188 7.476562 -6.632812 6.8125 -6.78125 C 5.644531 -7.039062 4.757812 -7.300781 4.15625 -7.5625 C 3.5625 -7.820312 3.085938 -8.109375 2.734375 -8.421875 C 2.390625 -8.742188 2.125 -9.113281 1.9375 -9.53125 C 1.75 -9.957031 1.65625 -10.445312 1.65625 -11 C 1.65625 -12.257812 2.132812 -13.226562 3.09375 -13.90625 C 4.0625 -14.59375 5.445312 -14.9375 7.25 -14.9375 C 8.914062 -14.9375 10.191406 -14.679688 11.078125 -14.171875 C 11.960938 -13.660156 12.582031 -12.785156 12.9375 -11.546875 L 10.984375 -11.203125 C 10.765625 -11.984375 10.351562 -12.550781 9.75 -12.90625 C 9.144531 -13.257812 8.304688 -13.4375 7.234375 -13.4375 C 6.054688 -13.4375 5.15625 -13.238281 4.53125 -12.84375 C 3.914062 -12.457031 3.609375 -11.878906 3.609375 -11.109375 C 3.609375 -10.648438 3.726562 -10.269531 3.96875 -9.96875 C 4.207031 -9.675781 4.550781 -9.425781 5 -9.21875 C 5.457031 -9.019531 6.359375 -8.769531 7.703125 -8.46875 C 8.160156 -8.363281 8.613281 -8.253906 9.0625 -8.140625 C 9.507812 -8.035156 9.9375 -7.910156 10.34375 -7.765625 C 10.757812 -7.617188 11.144531 -7.441406 11.5 -7.234375 C 11.863281 -7.035156 12.175781 -6.789062 12.4375 -6.5 C 12.707031 -6.207031 12.914062 -5.863281 13.0625 -5.46875 C 13.207031 -5.070312 13.28125 -4.601562 13.28125 -4.0625 Z M 13.28125 -4.0625 "/></g></g></g><g fill="#ffffff" fill-opacity="1"><g transform="translate(409.346339, 450.144673)"><g><path d="M 13.28125 -4.0625 C 13.28125 -2.707031 12.75 -1.65625 11.6875 -0.90625 C 10.625 -0.164062 9.128906 0.203125 7.203125 0.203125 C 3.617188 0.203125 1.539062 -1.039062 0.96875 -3.53125 L 2.90625 -3.921875 C 3.125 -3.035156 3.59375 -2.382812 4.3125 -1.96875 C 5.039062 -1.550781 6.03125 -1.34375 7.28125 -1.34375 C 8.570312 -1.34375 9.566406 -1.5625 10.265625 -2 C 10.960938 -2.445312 11.3125 -3.097656 11.3125 -3.953125 C 11.3125 -4.429688 11.203125 -4.820312 10.984375 -5.125 C 10.765625 -5.425781 10.457031 -5.671875 10.0625 -5.859375 C 9.664062 -6.054688 9.191406 -6.222656 8.640625 -6.359375 C 8.085938 -6.492188 7.476562 -6.632812 6.8125 -6.78125 C 5.644531 -7.039062 4.757812 -7.300781 4.15625 -7.5625 C 3.5625 -7.820312 3.085938 -8.109375 2.734375 -8.421875 C 2.390625 -8.742188 2.125 -9.113281 1.9375 -9.53125 C 1.75 -9.957031 1.65625 -10.445312 1.65625 -11 C 1.65625 -12.257812 2.132812 -13.226562 3.09375 -13.90625 C 4.0625 -14.59375 5.445312 -14.9375 7.25 -14.9375 C 8.914062 -14.9375 10.191406 -14.679688 11.078125 -14.171875 C 11.960938 -13.660156 12.582031 -12.785156 12.9375 -11.546875 L 10.984375 -11.203125 C 10.765625 -11.984375 10.351562 -12.550781 9.75 -12.90625 C 9.144531 -13.257812 8.304688 -13.4375 7.234375 -13.4375 C 6.054688 -13.4375 5.15625 -13.238281 4.53125 -12.84375 C 3.914062 -12.457031 3.609375 -11.878906 3.609375 -11.109375 C 3.609375 -10.648438 3.726562 -10.269531 3.96875 -9.96875 C 4.207031 -9.675781 4.550781 -9.425781 5 -9.21875 C 5.457031 -9.019531 6.359375 -8.769531 7.703125 -8.46875 C 8.160156 -8.363281 8.613281 -8.253906 9.0625 -8.140625 C 9.507812 -8.035156 9.9375 -7.910156 10.34375 -7.765625 C 10.757812 -7.617188 11.144531 -7.441406 11.5 -7.234375 C 11.863281 -7.035156 12.175781 -6.789062 12.4375 -6.5 C 12.707031 -6.207031 12.914062 -5.863281 13.0625 -5.46875 C 13.207031 -5.070312 13.28125 -4.601562 13.28125 -4.0625 Z M 13.28125 -4.0625 "/></g></g></g><g fill="#ffffff" fill-opacity="1"><g transform="translate(430.052568, 450.144673)"><g><path d="M 15.609375 -7.421875 C 15.609375 -5.890625 15.3125 -4.546875 14.71875 -3.390625 C 14.132812 -2.234375 13.289062 -1.34375 12.1875 -0.71875 C 11.09375 -0.101562 9.796875 0.203125 8.296875 0.203125 C 6.785156 0.203125 5.484375 -0.0976562 4.390625 -0.703125 C 3.296875 -1.316406 2.457031 -2.203125 1.875 -3.359375 C 1.300781 -4.523438 1.015625 -5.878906 1.015625 -7.421875 C 1.015625 -9.773438 1.65625 -11.613281 2.9375 -12.9375 C 4.226562 -14.269531 6.023438 -14.9375 8.328125 -14.9375 C 9.816406 -14.9375 11.113281 -14.640625 12.21875 -14.046875 C 13.320312 -13.453125 14.160156 -12.585938 14.734375 -11.453125 C 15.316406 -10.316406 15.609375 -8.972656 15.609375 -7.421875 Z M 13.578125 -7.421875 C 13.578125 -9.253906 13.117188 -10.691406 12.203125 -11.734375 C 11.285156 -12.785156 9.992188 -13.3125 8.328125 -13.3125 C 6.640625 -13.3125 5.335938 -12.796875 4.421875 -11.765625 C 3.503906 -10.734375 3.046875 -9.285156 3.046875 -7.421875 C 3.046875 -5.578125 3.507812 -4.113281 4.4375 -3.03125 C 5.363281 -1.945312 6.648438 -1.40625 8.296875 -1.40625 C 10.003906 -1.40625 11.3125 -1.925781 12.21875 -2.96875 C 13.125 -4.019531 13.578125 -5.503906 13.578125 -7.421875 Z M 13.578125 -7.421875 "/></g></g></g><g fill="#ffffff" fill-opacity="1"><g transform="translate(453.129304, 450.144673)"><g><path d="M 12.15625 0 L 8.328125 -6.109375 L 3.75 -6.109375 L 3.75 0 L 1.75 0 L 1.75 -14.71875 L 8.671875 -14.71875 C 10.335938 -14.71875 11.617188 -14.34375 12.515625 -13.59375 C 13.421875 -12.851562 13.875 -11.820312 13.875 -10.5 C 13.875 -9.414062 13.550781 -8.5 12.90625 -7.75 C 12.269531 -7 11.394531 -6.53125 10.28125 -6.34375 L 14.453125 0 Z M 11.859375 -10.484375 C 11.859375 -11.335938 11.566406 -11.988281 10.984375 -12.4375 C 10.410156 -12.894531 9.578125 -13.125 8.484375 -13.125 L 3.75 -13.125 L 3.75 -7.6875 L 8.5625 -7.6875 C 9.613281 -7.6875 10.425781 -7.929688 11 -8.421875 C 11.570312 -8.910156 11.859375 -9.597656 11.859375 -10.484375 Z M 11.859375 -10.484375 "/></g></g></g><g clip-path="url(#7a9bc7e4dd)"><path fill="#ffffff" d="M 300 99.476562 C 233.792969 99.476562 180 153.265625 180 219.476562 C 180 285.683594 233.792969 339.476562 300 339.476562 C 366.207031 339.476562 420 285.683594 420 219.476562 C 420 153.265625 366.207031 99.476562 300 99.476562 Z M 300 104.695312 C 363.460938 104.695312 414.78125 156.015625 414.78125 219.476562 C 414.78125 282.933594 363.460938 334.257812 300 334.257812 C 236.539062 334.257812 185.21875 282.933594 185.21875 219.476562 C 185.21875 156.015625 236.539062 104.695312 300 104.695312 Z M 300 104.695312 " fill-opacity="1" fill-rule="nonzero"/></g><g fill="#ffffff" fill-opacity="1"><g transform="translate(305.262154, 248.530477)"><g><path d="M 67.953125 42.859375 C 67.953125 43.578125 67.953125 44.289062 67.953125 45 C 67.953125 45.71875 67.414062 46.078125 66.34375 46.078125 C 65.03125 46.078125 64.28125 45.445312 64.09375 44.1875 C 63.914062 42.9375 63.828125 41.894531 63.828125 41.0625 C 63.828125 35.6875 64.394531 30.394531 65.53125 25.1875 C 66.664062 19.988281 68.015625 14.820312 69.578125 9.6875 L 72.265625 0.71875 C 73.816406 -4.425781 75.160156 -9.597656 76.296875 -14.796875 C 77.429688 -19.992188 78 -25.28125 78 -30.65625 C 78 -31.375 77.9375 -32.210938 77.8125 -33.171875 C 77.695312 -34.128906 77.457031 -35.023438 77.09375 -35.859375 C 76.738281 -36.703125 76.234375 -37.390625 75.578125 -37.921875 C 74.921875 -38.460938 74.113281 -38.734375 73.15625 -38.734375 C 71.363281 -38.734375 69.660156 -37.984375 68.046875 -36.484375 C 66.429688 -34.992188 64.90625 -33.171875 63.46875 -31.015625 C 62.039062 -28.867188 60.664062 -26.476562 59.34375 -23.84375 C 58.03125 -21.21875 56.71875 -18.828125 55.40625 -16.671875 C 54.09375 -14.523438 52.75 -12.703125 51.375 -11.203125 C 50 -9.710938 48.59375 -8.96875 47.15625 -8.96875 C 46.082031 -8.96875 45.242188 -9.296875 44.640625 -9.953125 C 44.046875 -10.609375 43.566406 -11.382812 43.203125 -12.28125 C 42.847656 -13.175781 42.640625 -14.128906 42.578125 -15.140625 C 42.523438 -16.160156 42.5 -17.03125 42.5 -17.75 C 42.5 -21.09375 42.828125 -24.378906 43.484375 -27.609375 C 44.140625 -30.835938 44.828125 -33.972656 45.546875 -37.015625 C 46.265625 -40.066406 46.953125 -43.023438 47.609375 -45.890625 C 48.265625 -48.765625 48.59375 -51.519531 48.59375 -54.15625 C 48.59375 -55.582031 48.351562 -56.773438 47.875 -57.734375 C 46.675781 -57.378906 45.0625 -55.378906 43.03125 -51.734375 C 41 -48.085938 38.726562 -43.632812 36.21875 -38.375 C 33.707031 -33.113281 31.078125 -27.460938 28.328125 -21.421875 C 25.578125 -15.390625 22.828125 -9.769531 20.078125 -4.5625 C 17.328125 0.632812 14.695312 4.9375 12.1875 8.34375 C 9.675781 11.75 7.46875 13.453125 5.5625 13.453125 C 4.476562 13.453125 3.609375 13.0625 2.953125 12.28125 C 2.296875 11.507812 1.785156 10.582031 1.421875 9.5 C 1.066406 8.425781 0.828125 7.289062 0.703125 6.09375 C 0.585938 4.894531 0.53125 3.941406 0.53125 3.234375 C 0.53125 -2.023438 1.25 -7.910156 2.6875 -14.421875 C 4.125 -20.941406 5.859375 -27.519531 7.890625 -34.15625 C 9.921875 -40.789062 12.160156 -47.273438 14.609375 -53.609375 C 17.066406 -59.953125 19.25 -65.632812 21.15625 -70.65625 C 19.601562 -68.257812 18.050781 -65.804688 16.5 -63.296875 C 14.945312 -60.785156 13.75 -58.15625 12.90625 -55.40625 L 12.375 -55.046875 L 11.828125 -56.296875 C 11.828125 -57.015625 12.335938 -58.507812 13.359375 -60.78125 C 14.378906 -63.050781 15.570312 -65.351562 16.9375 -67.6875 C 18.3125 -70.019531 19.625 -72.113281 20.875 -73.96875 C 22.132812 -75.820312 23.066406 -76.75 23.671875 -76.75 C 24.390625 -76.75 24.925781 -76.476562 25.28125 -75.9375 C 25.644531 -75.394531 25.828125 -74.828125 25.828125 -74.234375 C 23.910156 -69.210938 21.664062 -63.320312 19.09375 -56.5625 C 16.519531 -49.8125 14.035156 -42.910156 11.640625 -35.859375 C 9.253906 -28.804688 7.222656 -21.875 5.546875 -15.0625 C 3.878906 -8.25 3.046875 -2.269531 3.046875 2.875 C 3.046875 3.226562 3.101562 3.882812 3.21875 4.84375 C 3.34375 5.800781 3.492188 6.726562 3.671875 7.625 C 3.847656 8.519531 4.144531 9.328125 4.5625 10.046875 C 4.988281 10.765625 5.441406 11.125 5.921875 11.125 C 7.472656 11.125 9.320312 9.390625 11.46875 5.921875 C 13.625 2.453125 15.894531 -1.910156 18.28125 -7.171875 C 20.675781 -12.429688 23.160156 -18.109375 25.734375 -24.203125 C 28.304688 -30.304688 30.875 -35.984375 33.4375 -41.234375 C 36.007812 -46.492188 38.488281 -50.859375 40.875 -54.328125 C 43.269531 -57.796875 45.484375 -59.53125 47.515625 -59.53125 C 48.953125 -59.53125 49.789062 -58.875 50.03125 -57.5625 C 50.269531 -56.25 50.390625 -55.113281 50.390625 -54.15625 C 50.390625 -50.925781 50.148438 -47.726562 49.671875 -44.5625 C 49.191406 -41.394531 48.625 -38.222656 47.96875 -35.046875 C 47.3125 -31.878906 46.742188 -28.710938 46.265625 -25.546875 C 45.785156 -22.378906 45.546875 -19.179688 45.546875 -15.953125 C 45.546875 -15.117188 45.601562 -14.3125 45.71875 -13.53125 C 45.84375 -12.757812 46.265625 -12.070312 46.984375 -11.46875 C 48.054688 -11.59375 49.160156 -12.367188 50.296875 -13.796875 C 51.429688 -15.234375 52.65625 -17.023438 53.96875 -19.171875 C 55.289062 -21.328125 56.664062 -23.601562 58.09375 -26 C 59.53125 -28.394531 61.023438 -30.632812 62.578125 -32.71875 C 64.128906 -34.8125 65.769531 -36.546875 67.5 -37.921875 C 69.238281 -39.296875 71.066406 -39.984375 72.984375 -39.984375 C 75.734375 -39.984375 77.613281 -39.023438 78.625 -37.109375 C 79.644531 -35.203125 80.15625 -33.050781 80.15625 -30.65625 C 80.15625 -21.332031 79.109375 -12.097656 77.015625 -2.953125 C 74.921875 6.191406 72.914062 15.242188 71 24.203125 C 70.40625 27.316406 69.75 30.425781 69.03125 33.53125 C 68.3125 36.632812 67.953125 39.742188 67.953125 42.859375 Z M 67.953125 42.859375 "/></g></g></g><g fill="#ffffff" fill-opacity="1"><g transform="translate(401.917825, 248.530477)"><g/></g></g><g fill="#ffffff" fill-opacity="1"><g transform="translate(200.649677, 220.940966)"><g><path d="M 108.3125 32.09375 C 108.3125 32.570312 107.953125 32.8125 107.234375 32.8125 C 106.628906 32.8125 106.207031 32.691406 105.96875 32.453125 C 101.550781 28.742188 97.039062 25.394531 92.4375 22.40625 C 87.832031 19.425781 83.140625 16.707031 78.359375 14.25 C 73.578125 11.800781 68.675781 9.5625 63.65625 7.53125 C 58.632812 5.5 53.375 3.585938 47.875 1.796875 C 46.800781 5.023438 45.875 8.28125 45.09375 11.5625 C 44.320312 14.851562 43.578125 18.171875 42.859375 21.515625 C 42.492188 23.066406 42.191406 24.617188 41.953125 26.171875 C 41.710938 27.734375 41.296875 29.289062 40.703125 30.84375 C 40.347656 31.675781 39.8125 32.09375 39.09375 32.09375 C 38.726562 32.09375 38.515625 31.882812 38.453125 31.46875 C 38.398438 31.050781 38.375 30.722656 38.375 30.484375 C 38.375 25.578125 39 20.550781 40.25 15.40625 C 41.507812 10.269531 42.796875 5.375 44.109375 0.71875 C 43.390625 0.71875 42.519531 0.507812 41.5 0.09375 C 40.488281 -0.320312 39.984375 -1.007812 39.984375 -1.96875 C 39.984375 -2.570312 40.703125 -3.050781 42.140625 -3.40625 C 43.578125 -3.757812 44.53125 -3.9375 45 -3.9375 C 46.195312 -8.125 47.300781 -12.457031 48.3125 -16.9375 C 49.332031 -21.425781 50.441406 -25.878906 51.640625 -30.296875 C 52.835938 -34.722656 54.242188 -39.054688 55.859375 -43.296875 C 57.472656 -47.546875 59.472656 -51.523438 61.859375 -55.234375 C 62.222656 -55.828125 62.703125 -56.125 63.296875 -56.125 C 63.648438 -56.125 63.859375 -55.914062 63.921875 -55.5 C 63.984375 -55.082031 64.015625 -54.753906 64.015625 -54.515625 L 63.828125 -54.328125 C 61.203125 -46.078125 58.632812 -37.796875 56.125 -29.484375 C 53.613281 -21.179688 51.34375 -12.785156 49.3125 -4.296875 C 52.894531 -4.898438 56.835938 -5.675781 61.140625 -6.625 C 65.441406 -7.582031 69.804688 -8.78125 74.234375 -10.21875 C 78.660156 -11.65625 82.9375 -13.390625 87.0625 -15.421875 C 91.1875 -17.453125 94.859375 -19.867188 98.078125 -22.671875 C 101.304688 -25.484375 103.875 -28.710938 105.78125 -32.359375 C 107.695312 -36.003906 108.65625 -40.101562 108.65625 -44.65625 C 108.65625 -49.195312 107.671875 -53.050781 105.703125 -56.21875 C 103.734375 -59.382812 101.164062 -61.953125 98 -63.921875 C 94.832031 -65.898438 91.304688 -67.335938 87.421875 -68.234375 C 83.535156 -69.128906 79.617188 -69.578125 75.671875 -69.578125 C 71.484375 -69.578125 66.789062 -69.128906 61.59375 -68.234375 C 56.394531 -67.335938 51.101562 -66.019531 45.71875 -64.28125 C 40.34375 -62.550781 35.113281 -60.398438 30.03125 -57.828125 C 24.945312 -55.253906 20.429688 -52.265625 16.484375 -48.859375 C 12.546875 -45.453125 9.378906 -41.597656 6.984375 -37.296875 C 4.597656 -32.992188 3.40625 -28.332031 3.40625 -23.3125 C 3.40625 -22.59375 3.460938 -21.875 3.578125 -21.15625 C 3.703125 -20.4375 3.882812 -19.71875 4.125 -19 L 5.015625 -16.3125 C 5.253906 -15.59375 5.429688 -14.875 5.546875 -14.15625 C 5.671875 -13.445312 5.734375 -12.734375 5.734375 -12.015625 C 5.734375 -11.535156 5.492188 -11.296875 5.015625 -11.296875 C 3.941406 -11.296875 3.078125 -11.800781 2.421875 -12.8125 C 1.765625 -13.832031 1.285156 -15 0.984375 -16.3125 C 0.679688 -17.632812 0.46875 -19.007812 0.34375 -20.4375 C 0.226562 -21.875 0.171875 -22.953125 0.171875 -23.671875 C 0.171875 -28.929688 1.425781 -33.769531 3.9375 -38.1875 C 6.445312 -42.613281 9.765625 -46.585938 13.890625 -50.109375 C 18.015625 -53.640625 22.738281 -56.71875 28.0625 -59.34375 C 33.382812 -61.976562 38.851562 -64.160156 44.46875 -65.890625 C 50.082031 -67.628906 55.609375 -68.945312 61.046875 -69.84375 C 66.492188 -70.738281 71.367188 -71.1875 75.671875 -71.1875 C 79.972656 -71.1875 84.304688 -70.765625 88.671875 -69.921875 C 93.035156 -69.085938 96.976562 -67.625 100.5 -65.53125 C 104.03125 -63.445312 106.898438 -60.703125 109.109375 -57.296875 C 111.316406 -53.890625 112.421875 -49.613281 112.421875 -44.46875 C 112.421875 -39.800781 111.375 -35.582031 109.28125 -31.8125 C 107.195312 -28.050781 104.390625 -24.675781 100.859375 -21.6875 C 97.335938 -18.707031 93.363281 -16.109375 88.9375 -13.890625 C 84.507812 -11.679688 79.9375 -9.800781 75.21875 -8.25 C 70.5 -6.695312 65.867188 -5.410156 61.328125 -4.390625 C 56.785156 -3.378906 52.660156 -2.570312 48.953125 -1.96875 L 48.765625 -0.890625 C 53.078125 0.535156 57.59375 2.175781 62.3125 4.03125 C 67.03125 5.882812 71.71875 7.882812 76.375 10.03125 C 81.039062 12.1875 85.554688 14.550781 89.921875 17.125 C 94.285156 19.695312 98.257812 22.476562 101.84375 25.46875 C 102.207031 25.820312 102.71875 26.265625 103.375 26.796875 C 104.03125 27.335938 104.71875 27.9375 105.4375 28.59375 C 106.15625 29.257812 106.78125 29.890625 107.3125 30.484375 C 107.851562 31.078125 108.1875 31.613281 108.3125 32.09375 Z M 108.3125 32.09375 "/></g></g></g><g fill="#ffffff" fill-opacity="1"><g transform="translate(313.263164, 220.940966)"><g/></g></g></svg>